# xmcd
#
# Track frame offsets:
#	150
#	10543
#	22790
#	32462
#	44328
#	58045
#	68654
#	81277
#	95765
#	107955
#	119598
#	131388
#	141293
#	153027
#	161273
#	173080
#	183484
#	193487
#	207609
#	218528
#	228956
#	242530
#	250285
#	261791
#	271932
#
# Disc length: 3811 seconds
#
# Revision: 0
# Processed by: cddbd v1.5.2PL0 Copyright (c) Steve Scherf et al.
# Submitted via: EZCDAudioConverter 7.0.6.1
#
DISCID=540ee119
DTITLE=Esquivel - The Space Age Sound Of... 2/2
DYEAR=1900
DGENRE=
TTITLE0=Mucha Muchacha
TTITLE1=Andalusian Sky
TTITLE2=La Bamba
TTITLE3=Speak Low
TTITLE4=Latin-Esque
TTITLE5=Jesusita En Chihuahua
TTITLE6=Foolin' Around
TTITLE7=Malagueña
TTITLE8=You Belong To My Heart (Solamente Una Vez)
TTITLE9=Jalousie (Jealousy)
TTITLE10=Night And Day
TTITLE11=Johnson Rag
TTITLE12=Who's Sorry Now?
TTITLE13=La Raspa
TTITLE14=The Breeze And I (Andalucia)
TTITLE15=Sun Valley Ski Run
TTITLE16=Street Of Dreams
TTITLE17=Cherokee
TTITLE18=Bella Mora
TTITLE19=Limehouse Blues
TTITLE20=Poinciana
TTITLE21=Carioca
TTITLE22=Parade Of Wooden Soldiers
TTITLE23=Bye Bye Blues
TTITLE24=Adiós
EXTD=
EXTT0=
EXTT1=
EXTT2=
EXTT3=
EXTT4=
EXTT5=
EXTT6=
EXTT7=
EXTT8=
EXTT9=
EXTT10=
EXTT11=
EXTT12=
EXTT13=
EXTT14=
EXTT15=
EXTT16=
EXTT17=
EXTT18=
EXTT19=
EXTT20=
EXTT21=
EXTT22=
EXTT23=
EXTT24=
PLAYORDER=
